<?xml version="1.0" encoding="UTF-8"?>
<!DOCTYPE svg PUBLIC "-//W3C//DTD SVG 1.1//EN" "http://www.w3.org/Graphics/SVG/1.1/DTD/svg11.dtd">
<svg version="1.1" xmlns="http://www.w3.org/2000/svg" xmlns:xlink="http://www.w3.org/1999/xlink" x="0" y="0" width="355" height="173" viewBox="0, 0, 355, 173">
  <g id="Layer_1">
    <text transform="matrix(1, 0, 0, 1, 61.233, 86.5)">
      <tspan x="-56.016" y="52.5" font-family="HelveticaNeue-Light" font-size="144" fill="#000000">El</tspan>
    </text>
    <path d="M152.754,75.109 C169.433,75.109 182.953,78.796 182.953,83.345 C182.953,85.455 180.047,87.379 175.265,88.836 C169.734,90.521 161.698,91.581 152.754,91.581 C143.809,91.581 135.774,90.521 130.243,88.836 C125.461,87.379 122.554,85.455 122.554,83.345 C122.554,78.796 136.074,75.109 152.754,75.109 z M182.953,132.764 C182.953,137.312 169.433,141 152.754,141 C136.074,141 122.554,137.312 122.554,132.764 L122.554,121.78 C122.554,126.33 136.074,130.017 152.754,130.017 C169.433,130.017 182.953,126.33 182.953,121.78 L182.953,132.764 z M182.953,116.291 C182.953,120.839 169.433,124.527 152.754,124.527 C136.074,124.527 122.554,120.839 122.554,116.291 L122.554,105.309 C122.554,109.858 136.074,113.544 152.754,113.544 C169.433,113.544 182.953,109.858 182.953,105.309 L182.953,116.291 z M182.953,99.818 C182.953,104.366 169.433,108.054 152.754,108.054 C136.074,108.054 122.554,104.366 122.554,99.818 L122.554,88.836 C122.554,93.385 136.074,97.072 152.754,97.072 C169.433,97.072 182.953,93.385 182.953,88.836 L182.953,99.818 z" fill="#000000" id="database"/>
    <path d="M167.915,70.542 L134.61,70.542 Q129.593,70.542 126.03,66.979 Q122.467,63.416 122.467,58.398 Q122.467,54.181 125.012,50.945 Q127.557,47.709 131.556,46.691 L131.556,46.255 Q131.556,38.692 136.901,33.384 Q142.246,28.075 149.736,28.075 Q155.553,28.075 160.243,31.457 Q164.933,34.838 166.824,40.292 Q173.514,39.783 178.277,44.255 Q183.04,48.727 183.04,55.344 Q183.04,61.598 178.604,66.07 Q174.168,70.542 167.915,70.542 z M134.32,52.29 Q131.993,52.29 130.247,54.108 Q128.502,55.926 128.502,58.398 Q128.502,60.871 130.284,62.652 Q132.065,64.434 134.61,64.434 L167.915,64.434 Q171.696,64.434 174.35,61.78 Q177.004,59.125 177.004,55.344 Q177.004,51.563 174.35,48.909 Q171.696,46.255 167.915,46.255 Q166.824,46.255 165.442,46.691 L162.17,47.636 L161.661,44.291 Q160.861,39.928 157.516,37.056 Q154.171,34.184 149.736,34.184 Q144.718,34.184 141.155,37.71 Q137.592,41.237 137.592,46.255 Q137.592,47.127 137.883,48.727 L138.61,52.363 z" fill="#000000" id="cloud"/>
    <text transform="matrix(1, 0, 0, 1, 268.976, 86.5)">
      <tspan x="-78.696" y="52.5" font-family="HelveticaNeue-Light" font-size="144" fill="#000000">de</tspan>
    </text>
  </g>
</svg>
